<svg width="18" height="18" viewBox="0 0 18 18" fill="none" xmlns="http://www.w3.org/2000/svg">
<path d="M9 0C11.4909 0 13.7273 1 15.3636 2.63636C17 4.27273 18 6.50909 18 9C18 11.4909 17 13.7273 15.3636 15.3636C13.7273 17 11.4909 18 9 18C6.50909 18 4.27273 17 2.63636 15.3636C1 13.7273 0 11.4909 0 9C0 6.50909 1 4.27273 2.63636 2.63636C4.27273 1 6.50909 0 9 0ZM9.69091 7.16364V6.41818C9.69091 6.07273 9.92727 5.98182 10.0909 5.98182C10.2545 5.98182 11.1273 5.98182 11.1273 5.98182V4.4H9.70909C8.12727 4.4 7.78182 5.56364 7.78182 6.32727V7.16364H6.87273V8.27273V9H7.8C7.8 11.0909 7.8 13.6 7.8 13.6H9.63636C9.63636 13.6 9.63636 11.0545 9.63636 9H11L11.0545 8.27273L11.1636 7.16364H9.69091Z" fill="white" fill-opacity="0.9"/>
</svg>
