<svg width="15" height="14" viewBox="0 0 15 14" fill="none" xmlns="http://www.w3.org/2000/svg">
<path d="M13.8593 12.9785L10.6542 9.85408C11.5787 8.83262 12.1951 7.45064 12.1951 5.9485C12.1951 2.70386 9.48311 0 6.0931 0C2.76474 0 0.0527344 2.64378 0.0527344 5.9485C0.0527344 9.19313 2.76474 11.8369 6.15474 11.8369C7.51074 11.8369 8.80511 11.3562 9.79129 10.6352L13.058 13.8197C13.1813 13.9399 13.3046 14 13.4895 14C13.6744 14 13.7977 13.9399 13.9209 13.8197C14.1058 13.5794 14.1058 13.1588 13.8593 12.9785ZM1.28546 5.9485C1.28546 3.30472 3.44274 1.20172 6.15474 1.20172C8.86674 1.20172 11.024 3.30472 11.024 5.9485C11.024 8.59227 8.86674 10.6953 6.15474 10.6953C3.44274 10.6352 1.28546 8.53219 1.28546 5.9485Z" fill="#9C9C9C"/>
</svg>
